#!OML:ASF C:\ViconDB\ViconDB\414\Spring2016\041811\Spring2016.ASF
:FULLY-SPECIFIED
:DEGREES
151
root 10.6935 18.1197 4.85644 -177.295 -9.05494 -179.968
lowerback 0.332328 -0.607882 0.461612
upperback 1.91266 -0.872307 0.917559
thorax 1.78007 -0.455625 0.669916
lowerneck -13.3733 3.2478 -5.91079
upperneck 24.3266 2.98529 7.92007
head 9.6301 1.35379 4.06752
rclavicle -1.28216e-014 6.75868e-015
rhumerus -85.4655 28.7763 -104.159
rradius 91.9992
rwrist 38.1424
rhand -47.5158 -1.11728
rfingers 7.12502
rthumb -20.2031 -30.0867
lclavicle -1.28216e-014 6.75868e-015
lhumerus -88.2544 -42.2062 110.853
lradius 84.5085
lwrist -37.0372
lhand -38.107 -0.637259
lfingers 7.12502
lthumb -11.1425 29.0469
rfemur 169.525 26.4555 -164.331
rtibia 42.037
rfoot -0.919681 -60.3926
rtoes -19.6506
lfemur -1.70488 -5.01224 -24.3994
ltibia 19.5726
lfoot -22.6121 2.45483
ltoes -11.2068
152
root 10.6642 18.1175 4.8096 -177.28 -9.1505 -180.125
lowerback 0.432964 -0.653923 0.759799
upperback 1.88382 -0.930934 0.793644
thorax 1.68776 -0.478767 0.37685
lowerneck -13.4296 3.32827 -5.83824
upperneck 24.3959 3.11055 7.80899
head 9.65943 1.40617 4.03391
rclavicle 5.2181e-015 4.37326e-015
rhumerus -86.5892 28.7605 -105.247
rradius 92.7255
rwrist 37.9174
rhand -47.6044 -1.21889
rfingers 7.12502
rthumb -20.2882 -30.1793
lclavicle 5.2181e-015 4.37326e-015
lhumerus -89.5772 -42.6469 112.063
lradius 85.1555
lwrist -36.5119
lhand -38.6723 0.0861616
lfingers 7.12502
lthumb -11.6877 29.7401
rfemur 171.918 27.4384 -163.411
rtibia 40.5839
rfoot -3.48982 -59.426
rtoes -19.9656
lfemur -1.3113 -4.99116 -24.6548
ltibia 19.1847
lfoot -22.586 2.37498
ltoes -11.2969
153
root 10.6347 18.1117 4.76189 -177.192 -9.2182 -180.344
lowerback 0.435962 -0.761031 0.865156
upperback 1.8308 -1.07346 0.827766
thorax 1.63067 -0.548573 0.351855
lowerneck -13.4715 3.47496 -6.0509
upperneck 24.5116 3.43002 7.58448
head 9.68326 1.50888 4.03122
rclavicle 2.09221e-014 -1.03368e-014
rhumerus -87.7167 28.947 -106.29
rradius 93.2727
rwrist 37.7855
rhand -47.8683 -1.15409
rfingers 7.12502
rthumb -20.5419 -30.0873
lclavicle 2.09221e-014 -1.03368e-014
lhumerus -90.8021 -42.6816 113.4
lradius 85.7779
lwrist -35.4587
lhand -40.1311 0.264738
lfingers 7.12502
lthumb -13.0941 29.8337
rfemur 174.487 28.4254 -162.449
rtibia 39.055
rfoot -6.10772 -58.4252
rtoes -20.7265
lfemur -1.00048 -4.94442 -24.9627
ltibia 18.8499
lfoot -22.5689 2.27541
ltoes -11.3024
154
root 10.6054 18.105 4.71384 -177.086 -9.31454 -180.364
lowerback 0.293752 -0.827907 1.23125
upperback 1.82501 -1.16705 0.813512
thorax 1.69731 -0.589463 0.129164
lowerneck -13.5507 3.56163 -6.07397
upperneck 24.583 3.61901 7.37838
head 9.71381 1.5725 3.9884
rclavicle 5.76476e-015 -7.15625e-015
rhumerus -88.5263 28.9762 -107.286
rradius 93.7175
rwrist 37.9635
rhand -47.8107 -1.51879
rfingers 7.12502
rthumb -20.4865 -30.458
lclavicle 5.76476e-015 -7.15625e-015
lhumerus -91.7864 -42.9564 114.544
lradius 86.2762
lwrist -34.6844
lhand -40.4131 0.859343
lfingers 7.12502
lthumb -13.366 30.4106
rfemur 177.21 29.6321 -161.113
rtibia 37.5036
rfoot -9.02106 -57.6104
rtoes -20.9489
lfemur -0.757252 -4.89384 -25.0345
ltibia 18.5301
lfoot -22.5397 2.12459
ltoes -11.2649
155
root 10.5821 18.0976 4.66304 -177.067 -9.2796 -180.422
lowerback 0.29657 -0.879752 1.46998
upperback 1.82424 -1.23935 0.827342
thorax 1.69002 -0.622714 0.0089972
lowerneck -13.5841 3.68548 -6.17032
upperneck 24.6282 3.88956 7.1318
head 9.71965 1.66246 3.95024
rclavicle -4.96962e-016 -1.15295e-014
rhumerus -89.2903 29.1083 -108.333
rradius 94.0987
rwrist 37.8578
rhand -47.9252 -1.74596
rfingers 7.12502
rthumb -20.5965 -30.6733
lclavicle -4.96962e-016 -1.15295e-014
lhumerus -92.6717 -43.0732 115.689
lradius 86.611
lwrist -33.233
lhand -41.7663 1.16307
lfingers 7.12502
lthumb -14.67 30.6241
rfemur 179.891 30.7642 -159.736
rtibia 35.9555
rfoot -11.7693 -56.7288
rtoes -21.2383
lfemur -0.425386 -4.5013 -25.0908
ltibia 18.2352
lfoot -22.4226 1.69372
ltoes -10.9915
156
root 10.5551 18.0866 4.60922 -176.986 -9.18854 -180.569
lowerback 0.251164 -0.901041 1.69414
upperback 1.7895 -1.26813 0.791959
thorax 1.67417 -0.633162 -0.153374
lowerneck -13.6373 3.8046 -6.34246
upperneck 24.7225 4.13196 7.01745
head 9.74306 1.74411 3.97046
rclavicle -3.72721e-015 1.03368e-014
rhumerus -89.9765 29.1065 -109.327
rradius 94.411
rwrist 37.5658
rhand -47.8451 -1.8259
rfingers 7.12502
rthumb -20.5196 -30.7615
lclavicle -3.72721e-015 1.03368e-014
lhumerus -93.1824 -43.1318 116.457
lradius 86.8
lwrist -32.3328
lhand -42.18 1.59667
lfingers 7.12502
lthumb -15.0686 31.0283
rfemur 182.705 32.1065 -158.254
rtibia 34.4463
rfoot -15.1096 -55.8882
rtoes -21.8723
lfemur -0.149575 -3.93159 -25.2341
ltibia 17.9485
lfoot -22.3919 1.19351
ltoes -11.1582
